%TF.GenerationSoftware,KiCad,Pcbnew,8.0.7-8.0.7-0~ubuntu22.04.1*%
%TF.CreationDate,2025-02-02T15:20:16-05:00*%
%TF.ProjectId,Keg Washer,4b656720-5761-4736-9865-722e6b696361,rev?*%
%TF.SameCoordinates,Original*%
%TF.FileFunction,Paste,Top*%
%TF.FilePolarity,Positive*%
%FSLAX46Y46*%
G04 Gerber Fmt 4.6, Leading zero omitted, Abs format (unit mm)*
G04 Created by KiCad (PCBNEW 8.0.7-8.0.7-0~ubuntu22.04.1) date 2025-02-02 15:20:16*
%MOMM*%
%LPD*%
G01*
G04 APERTURE LIST*
G04 Aperture macros list*
%AMRoundRect*
0 Rectangle with rounded corners*
0 $1 Rounding radius*
0 $2 $3 $4 $5 $6 $7 $8 $9 X,Y pos of 4 corners*
0 Add a 4 corners polygon primitive as box body*
4,1,4,$2,$3,$4,$5,$6,$7,$8,$9,$2,$3,0*
0 Add four circle primitives for the rounded corners*
1,1,$1+$1,$2,$3*
1,1,$1+$1,$4,$5*
1,1,$1+$1,$6,$7*
1,1,$1+$1,$8,$9*
0 Add four rect primitives between the rounded corners*
20,1,$1+$1,$2,$3,$4,$5,0*
20,1,$1+$1,$4,$5,$6,$7,0*
20,1,$1+$1,$6,$7,$8,$9,0*
20,1,$1+$1,$8,$9,$2,$3,0*%
G04 Aperture macros list end*
%ADD10RoundRect,0.250000X1.500000X0.550000X-1.500000X0.550000X-1.500000X-0.550000X1.500000X-0.550000X0*%
%ADD11RoundRect,0.250000X-1.500000X-0.550000X1.500000X-0.550000X1.500000X0.550000X-1.500000X0.550000X0*%
%ADD12RoundRect,0.250000X-0.475000X0.250000X-0.475000X-0.250000X0.475000X-0.250000X0.475000X0.250000X0*%
%ADD13RoundRect,0.250000X-0.250000X-0.475000X0.250000X-0.475000X0.250000X0.475000X-0.250000X0.475000X0*%
%ADD14RoundRect,0.250000X-0.450000X0.262500X-0.450000X-0.262500X0.450000X-0.262500X0.450000X0.262500X0*%
%ADD15RoundRect,0.218750X-0.256250X0.218750X-0.256250X-0.218750X0.256250X-0.218750X0.256250X0.218750X0*%
%ADD16RoundRect,0.225000X-0.375000X0.225000X-0.375000X-0.225000X0.375000X-0.225000X0.375000X0.225000X0*%
%ADD17R,1.200000X3.500000*%
%ADD18RoundRect,0.075000X-0.662500X0.075000X-0.662500X-0.075000X0.662500X-0.075000X0.662500X0.075000X0*%
%ADD19RoundRect,0.075000X-0.075000X0.662500X-0.075000X-0.662500X0.075000X-0.662500X0.075000X0.662500X0*%
%ADD20R,1.100000X0.250000*%
%ADD21RoundRect,0.250000X0.450000X-0.262500X0.450000X0.262500X-0.450000X0.262500X-0.450000X-0.262500X0*%
%ADD22RoundRect,0.250000X0.262500X0.450000X-0.262500X0.450000X-0.262500X-0.450000X0.262500X-0.450000X0*%
%ADD23RoundRect,0.250000X-0.262500X-0.450000X0.262500X-0.450000X0.262500X0.450000X-0.262500X0.450000X0*%
%ADD24RoundRect,0.100000X-0.100000X0.225000X-0.100000X-0.225000X0.100000X-0.225000X0.100000X0.225000X0*%
%ADD25RoundRect,0.218750X0.218750X0.256250X-0.218750X0.256250X-0.218750X-0.256250X0.218750X-0.256250X0*%
%ADD26RoundRect,0.218750X-0.218750X-0.256250X0.218750X-0.256250X0.218750X0.256250X-0.218750X0.256250X0*%
%ADD27RoundRect,0.225000X-0.225000X-0.375000X0.225000X-0.375000X0.225000X0.375000X-0.225000X0.375000X0*%
%ADD28RoundRect,0.250000X1.000000X0.650000X-1.000000X0.650000X-1.000000X-0.650000X1.000000X-0.650000X0*%
%ADD29RoundRect,0.250000X-1.000000X-0.650000X1.000000X-0.650000X1.000000X0.650000X-1.000000X0.650000X0*%
%ADD30RoundRect,0.250000X0.475000X-0.250000X0.475000X0.250000X-0.475000X0.250000X-0.475000X-0.250000X0*%
%ADD31RoundRect,0.250000X0.550000X-1.500000X0.550000X1.500000X-0.550000X1.500000X-0.550000X-1.500000X0*%
%ADD32RoundRect,0.250000X-0.550000X1.500000X-0.550000X-1.500000X0.550000X-1.500000X0.550000X1.500000X0*%
%ADD33RoundRect,0.250000X0.250000X0.475000X-0.250000X0.475000X-0.250000X-0.475000X0.250000X-0.475000X0*%
G04 APERTURE END LIST*
D10*
%TO.C,C27*%
X228900000Y-96500000D03*
X223500000Y-96500000D03*
%TD*%
D11*
%TO.C,C26*%
X175300000Y-104000000D03*
X180700000Y-104000000D03*
%TD*%
%TO.C,C25*%
X181300000Y-164000000D03*
X186700000Y-164000000D03*
%TD*%
D12*
%TO.C,C24*%
X215000000Y-134550000D03*
X215000000Y-136450000D03*
%TD*%
D13*
%TO.C,C23*%
X186600000Y-122500000D03*
X188500000Y-122500000D03*
%TD*%
D14*
%TO.C,R69*%
X245000000Y-192412500D03*
X245000000Y-190587500D03*
%TD*%
D15*
%TO.C,D40*%
X245000000Y-195787500D03*
X245000000Y-194212500D03*
%TD*%
D16*
%TO.C,D39*%
X247500000Y-195650000D03*
X247500000Y-192350000D03*
%TD*%
D17*
%TO.C,Y1*%
X187500000Y-132750000D03*
X187500000Y-127250000D03*
%TD*%
D18*
%TO.C,U2*%
X212162500Y-127000000D03*
X212162500Y-127500000D03*
X212162500Y-128000000D03*
X212162500Y-128500000D03*
X212162500Y-129000000D03*
X212162500Y-129500000D03*
X212162500Y-130000000D03*
X212162500Y-130500000D03*
X212162500Y-131000000D03*
X212162500Y-131500000D03*
X212162500Y-132000000D03*
X212162500Y-132500000D03*
X212162500Y-133000000D03*
X212162500Y-133500000D03*
X212162500Y-134000000D03*
X212162500Y-134500000D03*
X212162500Y-135000000D03*
X212162500Y-135500000D03*
X212162500Y-136000000D03*
X212162500Y-136500000D03*
X212162500Y-137000000D03*
X212162500Y-137500000D03*
X212162500Y-138000000D03*
X212162500Y-138500000D03*
X212162500Y-139000000D03*
D19*
X210500000Y-140662500D03*
X210000000Y-140662500D03*
X209500000Y-140662500D03*
X209000000Y-140662500D03*
X208500000Y-140662500D03*
X208000000Y-140662500D03*
X207500000Y-140662500D03*
X207000000Y-140662500D03*
X206500000Y-140662500D03*
X206000000Y-140662500D03*
X205500000Y-140662500D03*
X205000000Y-140662500D03*
X204500000Y-140662500D03*
X204000000Y-140662500D03*
X203500000Y-140662500D03*
X203000000Y-140662500D03*
X202500000Y-140662500D03*
X202000000Y-140662500D03*
X201500000Y-140662500D03*
X201000000Y-140662500D03*
X200500000Y-140662500D03*
X200000000Y-140662500D03*
X199500000Y-140662500D03*
X199000000Y-140662500D03*
X198500000Y-140662500D03*
D18*
X196837500Y-139000000D03*
X196837500Y-138500000D03*
X196837500Y-138000000D03*
X196837500Y-137500000D03*
X196837500Y-137000000D03*
X196837500Y-136500000D03*
X196837500Y-136000000D03*
X196837500Y-135500000D03*
X196837500Y-135000000D03*
X196837500Y-134500000D03*
X196837500Y-134000000D03*
X196837500Y-133500000D03*
X196837500Y-133000000D03*
X196837500Y-132500000D03*
X196837500Y-132000000D03*
X196837500Y-131500000D03*
X196837500Y-131000000D03*
X196837500Y-130500000D03*
X196837500Y-130000000D03*
X196837500Y-129500000D03*
X196837500Y-129000000D03*
X196837500Y-128500000D03*
X196837500Y-128000000D03*
X196837500Y-127500000D03*
X196837500Y-127000000D03*
D19*
X198500000Y-125337500D03*
X199000000Y-125337500D03*
X199500000Y-125337500D03*
X200000000Y-125337500D03*
X200500000Y-125337500D03*
X201000000Y-125337500D03*
X201500000Y-125337500D03*
X202000000Y-125337500D03*
X202500000Y-125337500D03*
X203000000Y-125337500D03*
X203500000Y-125337500D03*
X204000000Y-125337500D03*
X204500000Y-125337500D03*
X205000000Y-125337500D03*
X205500000Y-125337500D03*
X206000000Y-125337500D03*
X206500000Y-125337500D03*
X207000000Y-125337500D03*
X207500000Y-125337500D03*
X208000000Y-125337500D03*
X208500000Y-125337500D03*
X209000000Y-125337500D03*
X209500000Y-125337500D03*
X210000000Y-125337500D03*
X210500000Y-125337500D03*
%TD*%
D20*
%TO.C,U1*%
X203850000Y-84500000D03*
X203850000Y-84000000D03*
X203850000Y-83500000D03*
X203850000Y-83000000D03*
X203850000Y-82500000D03*
X208150000Y-82500000D03*
X208150000Y-83000000D03*
X208150000Y-83500000D03*
X208150000Y-84000000D03*
X208150000Y-84500000D03*
%TD*%
D14*
%TO.C,R68*%
X247500000Y-190412500D03*
X247500000Y-188587500D03*
%TD*%
%TO.C,R67*%
X188000000Y-152412500D03*
X188000000Y-150587500D03*
%TD*%
D21*
%TO.C,R66*%
X192000000Y-145587500D03*
X192000000Y-147412500D03*
%TD*%
%TO.C,R65*%
X187000000Y-145587500D03*
X187000000Y-147412500D03*
%TD*%
D14*
%TO.C,R64*%
X198000000Y-196650000D03*
X198000000Y-194825000D03*
%TD*%
%TO.C,R63*%
X203000000Y-196650000D03*
X203000000Y-194825000D03*
%TD*%
%TO.C,R62*%
X182000000Y-196650000D03*
X182000000Y-194825000D03*
%TD*%
%TO.C,R61*%
X187000000Y-196650000D03*
X187000000Y-194825000D03*
%TD*%
%TO.C,R60*%
X198000000Y-193150000D03*
X198000000Y-191325000D03*
%TD*%
%TO.C,R59*%
X203000000Y-193150000D03*
X203000000Y-191325000D03*
%TD*%
%TO.C,R58*%
X182000000Y-193150000D03*
X182000000Y-191325000D03*
%TD*%
%TO.C,R57*%
X187000000Y-193062500D03*
X187000000Y-191237500D03*
%TD*%
D21*
%TO.C,R56*%
X198500000Y-187825000D03*
X198500000Y-189650000D03*
%TD*%
%TO.C,R55*%
X202500000Y-187825000D03*
X202500000Y-189650000D03*
%TD*%
%TO.C,R54*%
X182500000Y-187825000D03*
X182500000Y-189650000D03*
%TD*%
%TO.C,R53*%
X186500000Y-187825000D03*
X186500000Y-189650000D03*
%TD*%
D14*
%TO.C,R52*%
X230000000Y-196500000D03*
X230000000Y-194675000D03*
%TD*%
%TO.C,R51*%
X235000000Y-196500000D03*
X235000000Y-194675000D03*
%TD*%
%TO.C,R50*%
X213932500Y-196582500D03*
X213932500Y-194757500D03*
%TD*%
%TO.C,R49*%
X218932500Y-196582500D03*
X218932500Y-194757500D03*
%TD*%
%TO.C,R48*%
X230000000Y-193000000D03*
X230000000Y-191175000D03*
%TD*%
%TO.C,R47*%
X235000000Y-191175000D03*
X235000000Y-193000000D03*
%TD*%
%TO.C,R46*%
X213932500Y-193082500D03*
X213932500Y-191257500D03*
%TD*%
%TO.C,R45*%
X218932500Y-193082500D03*
X218932500Y-191257500D03*
%TD*%
D21*
%TO.C,R44*%
X230500000Y-187587500D03*
X230500000Y-189412500D03*
%TD*%
%TO.C,R43*%
X234500000Y-187675000D03*
X234500000Y-189500000D03*
%TD*%
%TO.C,R42*%
X214432500Y-187757500D03*
X214432500Y-189582500D03*
%TD*%
%TO.C,R41*%
X218432500Y-187757500D03*
X218432500Y-189582500D03*
%TD*%
%TO.C,R40*%
X180000000Y-75587500D03*
X180000000Y-77412500D03*
%TD*%
%TO.C,R39*%
X196000000Y-75675000D03*
X196000000Y-77500000D03*
%TD*%
D22*
%TO.C,R38*%
X180087500Y-79500000D03*
X181912500Y-79500000D03*
%TD*%
%TO.C,R37*%
X196175000Y-79500000D03*
X198000000Y-79500000D03*
%TD*%
%TO.C,R36*%
X197087500Y-85000000D03*
X198912500Y-85000000D03*
%TD*%
%TO.C,R35*%
X197087500Y-88500000D03*
X198912500Y-88500000D03*
%TD*%
D21*
%TO.C,R34*%
X212000000Y-75675000D03*
X212000000Y-77500000D03*
%TD*%
D22*
%TO.C,R33*%
X212175000Y-79500000D03*
X214000000Y-79500000D03*
%TD*%
D14*
%TO.C,R32*%
X184000000Y-131075000D03*
X184000000Y-129250000D03*
%TD*%
%TO.C,R31*%
X191000000Y-129162500D03*
X191000000Y-127337500D03*
%TD*%
D22*
%TO.C,R30*%
X223675000Y-79432500D03*
X225500000Y-79432500D03*
%TD*%
D21*
%TO.C,R29*%
X223500000Y-75675000D03*
X223500000Y-77500000D03*
%TD*%
D23*
%TO.C,R28*%
X172000000Y-180000000D03*
X170175000Y-180000000D03*
%TD*%
%TO.C,R27*%
X171587500Y-147672500D03*
X173412500Y-147672500D03*
%TD*%
%TO.C,R26*%
X172000000Y-182000000D03*
X170175000Y-182000000D03*
%TD*%
%TO.C,R25*%
X171587500Y-150000000D03*
X173412500Y-150000000D03*
%TD*%
D22*
%TO.C,R24*%
X170175000Y-184000000D03*
X172000000Y-184000000D03*
%TD*%
%TO.C,R23*%
X173412500Y-152000000D03*
X171587500Y-152000000D03*
%TD*%
%TO.C,R22*%
X170175000Y-186000000D03*
X172000000Y-186000000D03*
%TD*%
%TO.C,R21*%
X173412500Y-154500000D03*
X171587500Y-154500000D03*
%TD*%
D23*
%TO.C,R20*%
X172412500Y-115672500D03*
X170587500Y-115672500D03*
%TD*%
%TO.C,R19*%
X171412500Y-83672500D03*
X169587500Y-83672500D03*
%TD*%
%TO.C,R18*%
X172412500Y-118000000D03*
X170587500Y-118000000D03*
%TD*%
%TO.C,R17*%
X171412500Y-86000000D03*
X169587500Y-86000000D03*
%TD*%
D22*
%TO.C,R16*%
X170587500Y-120000000D03*
X172412500Y-120000000D03*
%TD*%
%TO.C,R15*%
X169587500Y-88000000D03*
X171412500Y-88000000D03*
%TD*%
%TO.C,R14*%
X170587500Y-122500000D03*
X172412500Y-122500000D03*
%TD*%
%TO.C,R13*%
X169587500Y-90500000D03*
X171412500Y-90500000D03*
%TD*%
%TO.C,R12*%
X230087500Y-157500000D03*
X231912500Y-157500000D03*
%TD*%
%TO.C,R11*%
X230087500Y-159500000D03*
X231912500Y-159500000D03*
%TD*%
D23*
%TO.C,R10*%
X231912500Y-161500000D03*
X230087500Y-161500000D03*
%TD*%
%TO.C,R9*%
X231912500Y-163500000D03*
X230087500Y-163500000D03*
%TD*%
D22*
%TO.C,R8*%
X235087500Y-113500000D03*
X236912500Y-113500000D03*
%TD*%
%TO.C,R7*%
X235087500Y-115500000D03*
X236912500Y-115500000D03*
%TD*%
D23*
%TO.C,R6*%
X236912500Y-117500000D03*
X235087500Y-117500000D03*
%TD*%
%TO.C,R5*%
X236912500Y-119500000D03*
X235087500Y-119500000D03*
%TD*%
%TO.C,R4*%
X234912500Y-85500000D03*
X233087500Y-85500000D03*
%TD*%
D22*
%TO.C,R3*%
X233087500Y-83500000D03*
X234912500Y-83500000D03*
%TD*%
%TO.C,R2*%
X233087500Y-81500000D03*
X234912500Y-81500000D03*
%TD*%
D23*
%TO.C,R1*%
X234912500Y-87500000D03*
X233087500Y-87500000D03*
%TD*%
D24*
%TO.C,Q7*%
X165150000Y-183450000D03*
X164500000Y-183450000D03*
X163850000Y-183450000D03*
X163850000Y-181550000D03*
X164500000Y-181550000D03*
X165150000Y-181550000D03*
%TD*%
%TO.C,Q6*%
X166150000Y-149222500D03*
X165500000Y-149222500D03*
X164850000Y-149222500D03*
X164850000Y-151122500D03*
X165500000Y-151122500D03*
X166150000Y-151122500D03*
%TD*%
%TO.C,Q5*%
X165650000Y-118950000D03*
X165000000Y-118950000D03*
X164350000Y-118950000D03*
X164350000Y-117050000D03*
X165000000Y-117050000D03*
X165650000Y-117050000D03*
%TD*%
%TO.C,Q4*%
X164650000Y-86950000D03*
X164000000Y-86950000D03*
X163350000Y-86950000D03*
X163350000Y-85050000D03*
X164000000Y-85050000D03*
X164650000Y-85050000D03*
%TD*%
%TO.C,Q3*%
X238150000Y-163950000D03*
X237500000Y-163950000D03*
X236850000Y-163950000D03*
X236850000Y-162050000D03*
X237500000Y-162050000D03*
X238150000Y-162050000D03*
%TD*%
%TO.C,Q2*%
X242150000Y-117950000D03*
X241500000Y-117950000D03*
X240850000Y-117950000D03*
X240850000Y-116050000D03*
X241500000Y-116050000D03*
X242150000Y-116050000D03*
%TD*%
%TO.C,Q1*%
X242150000Y-86450000D03*
X241500000Y-86450000D03*
X240850000Y-86450000D03*
X240850000Y-84550000D03*
X241500000Y-84550000D03*
X242150000Y-84550000D03*
%TD*%
D16*
%TO.C,D38*%
X195500000Y-196887500D03*
X195500000Y-193587500D03*
%TD*%
%TO.C,D37*%
X205500000Y-196887500D03*
X205500000Y-193587500D03*
%TD*%
%TO.C,D36*%
X179500000Y-196887500D03*
X179500000Y-193587500D03*
%TD*%
%TO.C,D35*%
X189500000Y-196887500D03*
X189500000Y-193587500D03*
%TD*%
D25*
%TO.C,D34*%
X194712500Y-191237500D03*
X196287500Y-191237500D03*
%TD*%
D26*
%TO.C,D33*%
X206287500Y-191237500D03*
X204712500Y-191237500D03*
%TD*%
D25*
%TO.C,D32*%
X178712500Y-191237500D03*
X180287500Y-191237500D03*
%TD*%
D26*
%TO.C,D31*%
X190287500Y-191237500D03*
X188712500Y-191237500D03*
%TD*%
D16*
%TO.C,D30*%
X227500000Y-196737500D03*
X227500000Y-193437500D03*
%TD*%
%TO.C,D29*%
X237500000Y-196737500D03*
X237500000Y-193437500D03*
%TD*%
%TO.C,D28*%
X211432500Y-196820000D03*
X211432500Y-193520000D03*
%TD*%
%TO.C,D27*%
X221432500Y-196820000D03*
X221432500Y-193520000D03*
%TD*%
D25*
%TO.C,D26*%
X226712500Y-191087500D03*
X228287500Y-191087500D03*
%TD*%
D26*
%TO.C,D25*%
X238287500Y-191087500D03*
X236712500Y-191087500D03*
%TD*%
D25*
%TO.C,D24*%
X210645000Y-191170000D03*
X212220000Y-191170000D03*
%TD*%
D26*
%TO.C,D23*%
X222220000Y-191170000D03*
X220645000Y-191170000D03*
%TD*%
D27*
%TO.C,D22*%
X185600000Y-75500000D03*
X182300000Y-75500000D03*
%TD*%
%TO.C,D21*%
X201500000Y-75500000D03*
X198200000Y-75500000D03*
%TD*%
D26*
%TO.C,D20*%
X185575000Y-77500000D03*
X184000000Y-77500000D03*
%TD*%
%TO.C,D19*%
X201500000Y-77500000D03*
X199925000Y-77500000D03*
%TD*%
D27*
%TO.C,D18*%
X217500000Y-75500000D03*
X214200000Y-75500000D03*
%TD*%
D26*
%TO.C,D17*%
X217500000Y-77500000D03*
X215925000Y-77500000D03*
%TD*%
D27*
%TO.C,D16*%
X229000000Y-75500000D03*
X225700000Y-75500000D03*
%TD*%
D26*
%TO.C,D15*%
X229000000Y-77500000D03*
X227425000Y-77500000D03*
%TD*%
D28*
%TO.C,D14*%
X162000000Y-169000000D03*
X166000000Y-169000000D03*
%TD*%
%TO.C,D13*%
X165957500Y-136172500D03*
X161957500Y-136172500D03*
%TD*%
%TO.C,D12*%
X161957500Y-187672500D03*
X165957500Y-187672500D03*
%TD*%
%TO.C,D11*%
X161957500Y-155672500D03*
X165957500Y-155672500D03*
%TD*%
%TO.C,D10*%
X161957500Y-104172500D03*
X165957500Y-104172500D03*
%TD*%
%TO.C,D9*%
X161957500Y-72172500D03*
X165957500Y-72172500D03*
%TD*%
%TO.C,D8*%
X161957500Y-123672500D03*
X165957500Y-123672500D03*
%TD*%
%TO.C,D7*%
X161957500Y-91672500D03*
X165957500Y-91672500D03*
%TD*%
D29*
%TO.C,D6*%
X246500000Y-160587500D03*
X242500000Y-160587500D03*
%TD*%
D28*
%TO.C,D5*%
X241000000Y-176250000D03*
X245000000Y-176250000D03*
%TD*%
D29*
%TO.C,D4*%
X246500000Y-112500000D03*
X242500000Y-112500000D03*
%TD*%
%TO.C,D3*%
X246500000Y-132000000D03*
X242500000Y-132000000D03*
%TD*%
%TO.C,D2*%
X246500000Y-80500000D03*
X242500000Y-80500000D03*
%TD*%
%TO.C,D1*%
X246500000Y-100000000D03*
X242500000Y-100000000D03*
%TD*%
D30*
%TO.C,C22*%
X215000000Y-129550000D03*
X215000000Y-131450000D03*
%TD*%
D13*
%TO.C,C21*%
X207950000Y-89500000D03*
X206050000Y-89500000D03*
%TD*%
D31*
%TO.C,C20*%
X227500000Y-145300000D03*
X227500000Y-150700000D03*
%TD*%
D32*
%TO.C,C19*%
X227500000Y-140200000D03*
X227500000Y-134800000D03*
%TD*%
D12*
%TO.C,C18*%
X215000000Y-125450000D03*
X215000000Y-123550000D03*
%TD*%
D13*
%TO.C,C17*%
X207450000Y-120500000D03*
X205550000Y-120500000D03*
%TD*%
D33*
%TO.C,C16*%
X204050000Y-147000000D03*
X205950000Y-147000000D03*
%TD*%
D12*
%TO.C,C15*%
X247000000Y-139950000D03*
X247000000Y-138050000D03*
%TD*%
D13*
%TO.C,C14*%
X183950000Y-127250000D03*
X182050000Y-127250000D03*
%TD*%
%TO.C,C13*%
X183950000Y-133250000D03*
X182050000Y-133250000D03*
%TD*%
D33*
%TO.C,C12*%
X194550000Y-189237500D03*
X196450000Y-189237500D03*
%TD*%
D13*
%TO.C,C11*%
X206450000Y-189237500D03*
X204550000Y-189237500D03*
%TD*%
D33*
%TO.C,C10*%
X180450000Y-189000000D03*
X178550000Y-189000000D03*
%TD*%
D13*
%TO.C,C9*%
X190450000Y-189000000D03*
X188550000Y-189000000D03*
%TD*%
D33*
%TO.C,C8*%
X226550000Y-189087500D03*
X228450000Y-189087500D03*
%TD*%
D13*
%TO.C,C7*%
X238450000Y-189087500D03*
X236550000Y-189087500D03*
%TD*%
D33*
%TO.C,C6*%
X210432500Y-189170000D03*
X212332500Y-189170000D03*
%TD*%
D13*
%TO.C,C5*%
X222382500Y-189170000D03*
X220482500Y-189170000D03*
%TD*%
%TO.C,C4*%
X185500000Y-79500000D03*
X183600000Y-79500000D03*
%TD*%
%TO.C,C3*%
X201500000Y-79500000D03*
X199600000Y-79500000D03*
%TD*%
%TO.C,C2*%
X217500000Y-79500000D03*
X215600000Y-79500000D03*
%TD*%
%TO.C,C1*%
X229000000Y-79432500D03*
X227100000Y-79432500D03*
%TD*%
M02*
