M48
; DRILL file {KiCad 8.0.7-8.0.7-0~ubuntu22.04.1} date 2025-02-03T14:05:34-0500
; FORMAT={-:-/ absolute / metric / decimal}
; #@! TF.CreationDate,2025-02-03T14:05:34-05:00
; #@! TF.GenerationSoftware,Kicad,Pcbnew,8.0.7-8.0.7-0~ubuntu22.04.1
; #@! TF.FileFunction,Plated,1,2,PTH
FMAT,2
METRIC
; #@! TA.AperFunction,Plated,PTH,ViaDrill
T1C0.300
; #@! TA.AperFunction,Plated,PTH,ViaDrill
T2C0.600
; #@! TA.AperFunction,Plated,PTH,ComponentDrill
T3C1.000
; #@! TA.AperFunction,Plated,PTH,ComponentDrill
T4C1.200
; #@! TA.AperFunction,Plated,PTH,ComponentDrill
T5C1.300
%
G90
G05
T1
X151.5Y-64.5
X153.0Y-66.0
X153.0Y-202.5
X154.25Y-204.5
X156.25Y-64.75
X157.25Y-66.75
X167.5Y-151.5
X169.0Y-151.5
X171.0Y-201.5
X172.0Y-205.0
X175.5Y-181.0
X175.75Y-126.25
X176.0Y-112.0
X176.0Y-134.25
X176.25Y-80.0
X176.5Y-77.5
X176.5Y-97.0
X176.5Y-151.0
X176.75Y-144.25
X177.5Y-119.0
X177.5Y-151.0
X178.0Y-87.0
X178.25Y-170.5
X178.5Y-119.0
X179.0Y-87.0
X179.0Y-109.0
X179.25Y-177.0
X179.5Y-95.0
X181.0Y-183.0
X182.0Y-123.0
X182.0Y-129.5
X182.0Y-131.0
X183.0Y-143.5
X183.0Y-152.0
X183.5Y-124.5
X184.0Y-171.5
X185.0Y-185.0
X185.5Y-176.0
X185.5Y-182.5
X186.0Y-120.5
X186.25Y-85.0
X186.5Y-88.0
X186.5Y-96.5
X186.5Y-119.5
X187.0Y-92.0
X187.75Y-100.25
X187.75Y-107.5
X188.5Y-140.5
X189.5Y-146.0
X189.5Y-148.0
X190.5Y-101.0
X190.5Y-140.5
X191.5Y-125.5
X192.0Y-79.0
X192.0Y-107.5
X192.25Y-76.75
X192.5Y-150.0
X193.5Y-129.5
X193.5Y-140.0
X194.2Y-135.6
X194.5Y-129.5
X195.0Y-135.6
X195.0Y-152.5
X196.0Y-88.5
X196.0Y-91.0
X196.0Y-97.0
X196.0Y-122.5
X196.5Y-142.0
X196.5Y-149.5
X197.0Y-124.5
X198.5Y-122.0
X199.25Y-107.5
X199.5Y-114.5
X199.5Y-182.5
X199.75Y-94.25
X200.0Y-128.0
X200.5Y-86.5
X200.5Y-135.0
X200.5Y-172.5
X200.5Y-185.0
X201.0Y-162.0
X202.0Y-113.0
X202.5Y-89.75
X204.25Y-99.5
X204.5Y-132.5
X204.5Y-133.5
X204.5Y-149.5
X205.0Y-145.0
X205.0Y-173.0
X205.5Y-149.0
X205.5Y-158.0
X206.0Y-93.5
X206.0Y-107.5
X206.0Y-116.5
X206.5Y-143.0
X206.75Y-77.25
X207.0Y-79.25
X207.0Y-137.5
X208.0Y-114.0
X208.0Y-128.0
X208.5Y-133.5
X210.0Y-84.0
X210.0Y-117.5
X210.5Y-108.0
X210.5Y-172.5
X211.5Y-145.0
X212.5Y-115.5
X213.0Y-113.5
X213.0Y-140.5
X214.0Y-133.0
X214.5Y-90.5
X214.5Y-144.5
X215.0Y-147.0
X215.0Y-182.0
X215.25Y-98.5
X216.0Y-133.0
X216.0Y-162.0
X216.0Y-185.0
X217.0Y-113.0
X219.0Y-93.5
X219.0Y-144.0
X220.0Y-99.5
X220.5Y-174.0
X221.0Y-156.5
X221.25Y-87.25
X221.5Y-79.25
X221.5Y-138.0
X222.0Y-131.5
X222.5Y-116.5
X224.0Y-122.75
X224.75Y-107.25
X224.75Y-111.25
X225.5Y-171.75
X226.0Y-88.0
X226.0Y-165.0
X227.0Y-128.25
X227.0Y-161.5
X227.5Y-111.25
X227.5Y-116.5
X227.5Y-159.5
X228.0Y-107.75
X228.25Y-176.5
X229.0Y-83.5
X230.5Y-84.5
X231.25Y-172.5
X231.5Y-79.5
X231.5Y-183.0
X231.5Y-185.0
X231.75Y-91.0
X234.0Y-79.5
X237.75Y-131.75
X238.0Y-84.5
X238.5Y-88.5
X239.0Y-80.5
X239.0Y-109.0
X239.0Y-111.5
X239.5Y-75.5
X239.5Y-114.0
X239.75Y-67.25
X240.5Y-63.75
X241.75Y-135.5
X243.0Y-120.5
X243.0Y-182.5
X243.5Y-187.5
X246.0Y-116.0
X246.0Y-119.0
X246.5Y-84.5
X247.0Y-88.0
X249.75Y-202.75
X251.0Y-205.75
X254.75Y-66.0
X255.25Y-63.25
X256.5Y-203.75
X257.25Y-206.5
T2
X186.08Y-103.92
X187.5Y-103.92
X189.0Y-103.92
X190.5Y-103.92
X192.0Y-103.92
X197.08Y-103.92
X199.0Y-103.92
X201.0Y-103.92
X203.0Y-103.92
X205.0Y-103.92
T3
X161.917Y-75.672
X161.917Y-80.752
X161.917Y-127.172
X161.917Y-132.252
X161.917Y-191.0
X161.917Y-196.08
X162.0Y-95.0
X162.0Y-100.08
X162.0Y-107.5
X162.0Y-112.58
X162.0Y-139.5
X162.0Y-144.58
X162.0Y-159.0
X162.0Y-164.08
X162.042Y-172.327
X162.042Y-177.407
X164.457Y-75.672
X164.457Y-80.752
X164.457Y-127.172
X164.457Y-132.252
X164.457Y-191.0
X164.457Y-196.08
X164.54Y-95.0
X164.54Y-100.08
X164.54Y-107.5
X164.54Y-112.58
X164.54Y-139.5
X164.54Y-144.58
X164.54Y-159.0
X164.54Y-164.08
X164.582Y-172.327
X164.582Y-177.407
X172.077Y-75.672
X172.077Y-80.752
X172.077Y-127.172
X172.077Y-132.252
X172.077Y-191.0
X172.077Y-196.08
X172.16Y-95.0
X172.16Y-100.08
X172.16Y-107.5
X172.16Y-112.58
X172.16Y-139.5
X172.16Y-144.58
X172.16Y-159.0
X172.16Y-164.08
X172.202Y-172.327
X172.202Y-177.407
X187.0Y-143.0
X188.0Y-155.0
X189.54Y-143.0
X190.54Y-155.0
X191.46Y-114.92
X191.46Y-117.46
X191.46Y-120.0
X192.08Y-143.0
X192.5Y-85.5
X192.5Y-88.04
X192.5Y-90.58
X192.5Y-93.12
X194.0Y-114.92
X194.0Y-117.46
X194.0Y-120.0
X198.38Y-110.5
X200.92Y-110.5
X203.46Y-110.5
X206.0Y-110.5
X208.54Y-110.5
X211.08Y-110.5
X213.62Y-110.5
X216.16Y-110.5
X218.7Y-110.5
X236.297Y-103.92
X236.297Y-109.0
X236.38Y-71.92
X236.38Y-77.0
X236.38Y-91.42
X236.38Y-96.5
X236.38Y-123.42
X236.38Y-128.5
X236.38Y-152.007
X236.38Y-157.088
X236.38Y-167.593
X236.38Y-172.672
X243.917Y-103.92
X243.917Y-109.0
X244.0Y-71.92
X244.0Y-77.0
X244.0Y-91.42
X244.0Y-96.5
X244.0Y-123.42
X244.0Y-128.5
X244.0Y-152.007
X244.0Y-157.088
X244.0Y-167.593
X244.0Y-172.672
X246.457Y-103.92
X246.457Y-109.0
X246.54Y-71.92
X246.54Y-77.0
X246.54Y-91.42
X246.54Y-96.5
X246.54Y-123.42
X246.54Y-128.5
X246.54Y-152.007
X246.54Y-157.088
X246.54Y-167.593
X246.54Y-172.672
T4
X237.305Y-139.46
X237.305Y-142.0
X237.305Y-144.54
T5
X155.457Y-73.172
X155.457Y-78.172
X155.457Y-83.172
X155.457Y-89.172
X155.457Y-94.172
X155.457Y-99.172
X155.457Y-105.172
X155.457Y-110.172
X155.457Y-115.172
X155.457Y-121.172
X155.457Y-126.172
X155.457Y-131.172
X155.457Y-137.172
X155.457Y-142.172
X155.457Y-147.172
X155.457Y-153.172
X155.457Y-158.172
X155.457Y-163.172
X155.457Y-169.172
X155.457Y-174.172
X155.457Y-179.172
X155.457Y-185.172
X155.457Y-190.172
X155.457Y-195.172
X173.5Y-69.5
X178.0Y-202.0
X178.5Y-69.5
X183.0Y-202.0
X183.5Y-69.5
X188.0Y-202.0
X189.5Y-69.5
X194.0Y-202.0
X194.5Y-69.5
X199.0Y-202.0
X199.5Y-69.5
X204.0Y-202.0
X205.5Y-69.5
X210.0Y-202.0
X210.5Y-69.5
X215.0Y-202.0
X215.5Y-69.5
X220.0Y-202.0
X221.5Y-69.5
X226.0Y-202.0
X226.5Y-69.5
X231.0Y-202.0
X231.5Y-69.5
X236.0Y-202.0
X253.0Y-73.0
X253.0Y-78.0
X253.0Y-83.0
X253.0Y-89.0
X253.0Y-94.0
X253.0Y-99.0
X253.0Y-105.0
X253.0Y-110.0
X253.0Y-115.0
X253.0Y-121.0
X253.0Y-126.0
X253.0Y-131.0
X253.0Y-137.0
X253.0Y-142.0
X253.0Y-147.0
X253.0Y-153.088
X253.0Y-158.088
X253.0Y-163.088
X253.0Y-169.088
X253.0Y-174.088
X253.0Y-179.088
X253.0Y-185.0
X253.0Y-190.0
X253.0Y-195.0
M30
