%TF.GenerationSoftware,KiCad,Pcbnew,8.0.7-8.0.7-0~ubuntu22.04.1*%
%TF.CreationDate,2025-02-03T14:05:17-05:00*%
%TF.ProjectId,Keg Washer,4b656720-5761-4736-9865-722e6b696361,rev?*%
%TF.SameCoordinates,Original*%
%TF.FileFunction,Legend,Bot*%
%TF.FilePolarity,Positive*%
%FSLAX46Y46*%
G04 Gerber Fmt 4.6, Leading zero omitted, Abs format (unit mm)*
G04 Created by KiCad (PCBNEW 8.0.7-8.0.7-0~ubuntu22.04.1) date 2025-02-03 14:05:17*
%MOMM*%
%LPD*%
G01*
G04 APERTURE LIST*
%ADD10C,0.100000*%
G04 APERTURE END LIST*
D10*
X168910401Y-68372419D02*
X168910401Y-69086704D01*
X168910401Y-69086704D02*
X168958020Y-69229561D01*
X168958020Y-69229561D02*
X169053258Y-69324800D01*
X169053258Y-69324800D02*
X169196115Y-69372419D01*
X169196115Y-69372419D02*
X169291353Y-69372419D01*
X167958020Y-69372419D02*
X168434210Y-69372419D01*
X168434210Y-69372419D02*
X168434210Y-68372419D01*
X167053258Y-69277180D02*
X167100877Y-69324800D01*
X167100877Y-69324800D02*
X167243734Y-69372419D01*
X167243734Y-69372419D02*
X167338972Y-69372419D01*
X167338972Y-69372419D02*
X167481829Y-69324800D01*
X167481829Y-69324800D02*
X167577067Y-69229561D01*
X167577067Y-69229561D02*
X167624686Y-69134323D01*
X167624686Y-69134323D02*
X167672305Y-68943847D01*
X167672305Y-68943847D02*
X167672305Y-68800990D01*
X167672305Y-68800990D02*
X167624686Y-68610514D01*
X167624686Y-68610514D02*
X167577067Y-68515276D01*
X167577067Y-68515276D02*
X167481829Y-68420038D01*
X167481829Y-68420038D02*
X167338972Y-68372419D01*
X167338972Y-68372419D02*
X167243734Y-68372419D01*
X167243734Y-68372419D02*
X167100877Y-68420038D01*
X167100877Y-68420038D02*
X167053258Y-68467657D01*
X166338972Y-68372419D02*
X166338972Y-69086704D01*
X166338972Y-69086704D02*
X166386591Y-69229561D01*
X166386591Y-69229561D02*
X166481829Y-69324800D01*
X166481829Y-69324800D02*
X166624686Y-69372419D01*
X166624686Y-69372419D02*
X166719924Y-69372419D01*
X165386591Y-69372419D02*
X165862781Y-69372419D01*
X165862781Y-69372419D02*
X165862781Y-68372419D01*
X164481829Y-69277180D02*
X164529448Y-69324800D01*
X164529448Y-69324800D02*
X164672305Y-69372419D01*
X164672305Y-69372419D02*
X164767543Y-69372419D01*
X164767543Y-69372419D02*
X164910400Y-69324800D01*
X164910400Y-69324800D02*
X165005638Y-69229561D01*
X165005638Y-69229561D02*
X165053257Y-69134323D01*
X165053257Y-69134323D02*
X165100876Y-68943847D01*
X165100876Y-68943847D02*
X165100876Y-68800990D01*
X165100876Y-68800990D02*
X165053257Y-68610514D01*
X165053257Y-68610514D02*
X165005638Y-68515276D01*
X165005638Y-68515276D02*
X164910400Y-68420038D01*
X164910400Y-68420038D02*
X164767543Y-68372419D01*
X164767543Y-68372419D02*
X164672305Y-68372419D01*
X164672305Y-68372419D02*
X164529448Y-68420038D01*
X164529448Y-68420038D02*
X164481829Y-68467657D01*
X163767543Y-68372419D02*
X163767543Y-69086704D01*
X163767543Y-69086704D02*
X163815162Y-69229561D01*
X163815162Y-69229561D02*
X163910400Y-69324800D01*
X163910400Y-69324800D02*
X164053257Y-69372419D01*
X164053257Y-69372419D02*
X164148495Y-69372419D01*
X162815162Y-69372419D02*
X163291352Y-69372419D01*
X163291352Y-69372419D02*
X163291352Y-68372419D01*
X161910400Y-69277180D02*
X161958019Y-69324800D01*
X161958019Y-69324800D02*
X162100876Y-69372419D01*
X162100876Y-69372419D02*
X162196114Y-69372419D01*
X162196114Y-69372419D02*
X162338971Y-69324800D01*
X162338971Y-69324800D02*
X162434209Y-69229561D01*
X162434209Y-69229561D02*
X162481828Y-69134323D01*
X162481828Y-69134323D02*
X162529447Y-68943847D01*
X162529447Y-68943847D02*
X162529447Y-68800990D01*
X162529447Y-68800990D02*
X162481828Y-68610514D01*
X162481828Y-68610514D02*
X162434209Y-68515276D01*
X162434209Y-68515276D02*
X162338971Y-68420038D01*
X162338971Y-68420038D02*
X162196114Y-68372419D01*
X162196114Y-68372419D02*
X162100876Y-68372419D01*
X162100876Y-68372419D02*
X161958019Y-68420038D01*
X161958019Y-68420038D02*
X161910400Y-68467657D01*
X161196114Y-68372419D02*
X161196114Y-69086704D01*
X161196114Y-69086704D02*
X161243733Y-69229561D01*
X161243733Y-69229561D02*
X161338971Y-69324800D01*
X161338971Y-69324800D02*
X161481828Y-69372419D01*
X161481828Y-69372419D02*
X161577066Y-69372419D01*
X160243733Y-69372419D02*
X160719923Y-69372419D01*
X160719923Y-69372419D02*
X160719923Y-68372419D01*
X159338971Y-69277180D02*
X159386590Y-69324800D01*
X159386590Y-69324800D02*
X159529447Y-69372419D01*
X159529447Y-69372419D02*
X159624685Y-69372419D01*
X159624685Y-69372419D02*
X159767542Y-69324800D01*
X159767542Y-69324800D02*
X159862780Y-69229561D01*
X159862780Y-69229561D02*
X159910399Y-69134323D01*
X159910399Y-69134323D02*
X159958018Y-68943847D01*
X159958018Y-68943847D02*
X159958018Y-68800990D01*
X159958018Y-68800990D02*
X159910399Y-68610514D01*
X159910399Y-68610514D02*
X159862780Y-68515276D01*
X159862780Y-68515276D02*
X159767542Y-68420038D01*
X159767542Y-68420038D02*
X159624685Y-68372419D01*
X159624685Y-68372419D02*
X159529447Y-68372419D01*
X159529447Y-68372419D02*
X159386590Y-68420038D01*
X159386590Y-68420038D02*
X159338971Y-68467657D01*
M02*
